<svg width="48" height="38" viewBox="0 0 48 38" fill="none" xmlns="http://www.w3.org/2000/svg">
<path d="M12.375 3.5C12.375 2.98614 12.5791 2.49333 12.9425 2.12998C13.3058 1.76663 13.7986 1.5625 14.3125 1.5625H45.3125C45.8264 1.5625 46.3192 1.76663 46.6825 2.12998C47.0459 2.49333 47.25 2.98614 47.25 3.5C47.25 4.01386 47.0459 4.50667 46.6825 4.87002C46.3192 5.23337 45.8264 5.4375 45.3125 5.4375H14.3125C13.7986 5.4375 13.3058 5.23337 12.9425 4.87002C12.5791 4.50667 12.375 4.01386 12.375 3.5V3.5ZM45.3125 17.0625H14.3125C13.7986 17.0625 13.3058 17.2666 12.9425 17.63C12.5791 17.9933 12.375 18.4861 12.375 19C12.375 19.5139 12.5791 20.0067 12.9425 20.37C13.3058 20.7334 13.7986 20.9375 14.3125 20.9375H45.3125C45.8264 20.9375 46.3192 20.7334 46.6825 20.37C47.0459 20.0067 47.25 19.5139 47.25 19C47.25 18.4861 47.0459 17.9933 46.6825 17.63C46.3192 17.2666 45.8264 17.0625 45.3125 17.0625ZM45.3125 32.5625H14.3125C13.7986 32.5625 13.3058 32.7666 12.9425 33.13C12.5791 33.4933 12.375 33.9861 12.375 34.5C12.375 35.0139 12.5791 35.5067 12.9425 35.87C13.3058 36.2334 13.7986 36.4375 14.3125 36.4375H45.3125C45.8264 36.4375 46.3192 36.2334 46.6825 35.87C47.0459 35.5067 47.25 35.0139 47.25 34.5C47.25 33.9861 47.0459 33.4933 46.6825 33.13C46.3192 32.7666 45.8264 32.5625 45.3125 32.5625ZM3.65625 16.0938C3.08145 16.0938 2.51956 16.2642 2.04163 16.5835C1.5637 16.9029 1.19119 17.3568 0.971226 17.8878C0.751259 18.4189 0.693706 19.0032 0.805844 19.567C0.917982 20.1307 1.19478 20.6486 1.60122 21.055C2.00767 21.4615 2.52551 21.7383 3.08927 21.8504C3.65303 21.9625 4.23738 21.905 4.76843 21.685C5.29947 21.4651 5.75337 21.0926 6.07271 20.6146C6.39205 20.1367 6.5625 19.5748 6.5625 19C6.5625 18.2292 6.25631 17.49 5.71128 16.945C5.16625 16.3999 4.42704 16.0938 3.65625 16.0938V16.0938ZM3.65625 0.59375C3.08145 0.59375 2.51956 0.764199 2.04163 1.08354C1.5637 1.40288 1.19119 1.85678 0.971226 2.38783C0.751259 2.91887 0.693706 3.50322 0.805844 4.06698C0.917982 4.63074 1.19478 5.14858 1.60122 5.55503C2.00767 5.96148 2.52551 6.23827 3.08927 6.35041C3.65303 6.46255 4.23738 6.40499 4.76843 6.18503C5.29947 5.96506 5.75337 5.59256 6.07271 5.11463C6.39205 4.63669 6.5625 4.0748 6.5625 3.5C6.5625 2.72921 6.25631 1.99 5.71128 1.44497C5.16625 0.899943 4.42704 0.59375 3.65625 0.59375ZM3.65625 31.5938C3.08145 31.5938 2.51956 31.7642 2.04163 32.0835C1.5637 32.4029 1.19119 32.8568 0.971226 33.3878C0.751259 33.9189 0.693706 34.5032 0.805844 35.067C0.917982 35.6307 1.19478 36.1486 1.60122 36.555C2.00767 36.9615 2.52551 37.2383 3.08927 37.3504C3.65303 37.4625 4.23738 37.405 4.76843 37.185C5.29947 36.9651 5.75337 36.5926 6.07271 36.1146C6.39205 35.6367 6.5625 35.0748 6.5625 34.5C6.5625 33.7292 6.25631 32.99 5.71128 32.445C5.16625 31.8999 4.42704 31.5938 3.65625 31.5938Z" fill="#333333"/>
</svg>
