<svg width="150" height="150" viewBox="0 0 150 150" fill="none" xmlns="http://www.w3.org/2000/svg">
<circle cx="75" cy="75" r="75" fill="white"/>
<path d="M63.375 59.5C63.375 58.9861 63.5791 58.4933 63.9425 58.13C64.3058 57.7666 64.7986 57.5625 65.3125 57.5625H96.3125C96.8264 57.5625 97.3192 57.7666 97.6825 58.13C98.0459 58.4933 98.25 58.9861 98.25 59.5C98.25 60.0139 98.0459 60.5067 97.6825 60.87C97.3192 61.2334 96.8264 61.4375 96.3125 61.4375H65.3125C64.7986 61.4375 64.3058 61.2334 63.9425 60.87C63.5791 60.5067 63.375 60.0139 63.375 59.5ZM96.3125 73.0625H65.3125C64.7986 73.0625 64.3058 73.2666 63.9425 73.63C63.5791 73.9933 63.375 74.4861 63.375 75C63.375 75.5139 63.5791 76.0067 63.9425 76.37C64.3058 76.7334 64.7986 76.9375 65.3125 76.9375H96.3125C96.8264 76.9375 97.3192 76.7334 97.6825 76.37C98.0459 76.0067 98.25 75.5139 98.25 75C98.25 74.4861 98.0459 73.9933 97.6825 73.63C97.3192 73.2666 96.8264 73.0625 96.3125 73.0625ZM96.3125 88.5625H65.3125C64.7986 88.5625 64.3058 88.7666 63.9425 89.13C63.5791 89.4933 63.375 89.9861 63.375 90.5C63.375 91.0139 63.5791 91.5067 63.9425 91.87C64.3058 92.2334 64.7986 92.4375 65.3125 92.4375H96.3125C96.8264 92.4375 97.3192 92.2334 97.6825 91.87C98.0459 91.5067 98.25 91.0139 98.25 90.5C98.25 89.9861 98.0459 89.4933 97.6825 89.13C97.3192 88.7666 96.8264 88.5625 96.3125 88.5625ZM54.6563 72.0938C54.0814 72.0938 53.5196 72.2642 53.0416 72.5835C52.5637 72.9029 52.1912 73.3568 51.9712 73.8878C51.7513 74.4189 51.6937 75.0032 51.8058 75.567C51.918 76.1307 52.1948 76.6486 52.6012 77.055C53.0077 77.4615 53.5255 77.7383 54.0893 77.8504C54.653 77.9625 55.2374 77.905 55.7684 77.685C56.2995 77.4651 56.7534 77.0926 57.0727 76.6146C57.3921 76.1367 57.5625 75.5748 57.5625 75C57.5625 74.2292 57.2563 73.49 56.7113 72.945C56.1663 72.3999 55.427 72.0938 54.6563 72.0938ZM54.6563 56.5938C54.0814 56.5938 53.5196 56.7642 53.0416 57.0835C52.5637 57.4029 52.1912 57.8568 51.9712 58.3878C51.7513 58.9189 51.6937 59.5032 51.8058 60.067C51.918 60.6307 52.1948 61.1486 52.6012 61.555C53.0077 61.9615 53.5255 62.2383 54.0893 62.3504C54.653 62.4625 55.2374 62.405 55.7684 62.185C56.2995 61.9651 56.7534 61.5926 57.0727 61.1146C57.3921 60.6367 57.5625 60.0748 57.5625 59.5C57.5625 58.7292 57.2563 57.99 56.7113 57.445C56.1663 56.8999 55.427 56.5938 54.6563 56.5938ZM54.6563 87.5938C54.0814 87.5938 53.5196 87.7642 53.0416 88.0835C52.5637 88.4029 52.1912 88.8568 51.9712 89.3878C51.7513 89.9189 51.6937 90.5032 51.8058 91.067C51.918 91.6307 52.1948 92.1486 52.6012 92.555C53.0077 92.9615 53.5255 93.2383 54.0893 93.3504C54.653 93.4625 55.2374 93.405 55.7684 93.185C56.2995 92.9651 56.7534 92.5926 57.0727 92.1146C57.3921 91.6367 57.5625 91.0748 57.5625 90.5C57.5625 89.7292 57.2563 88.99 56.7113 88.445C56.1663 87.8999 55.427 87.5938 54.6563 87.5938Z" fill="#333333"/>
</svg>
