<svg width="22" height="22" viewBox="0 0 22 22" fill="none" xmlns="http://www.w3.org/2000/svg">
<path d="M11 10.9785C10.4043 10.9785 10.0039 10.5488 10.0039 9.92383V1.33008C10.0039 0.695312 10.4043 0.275391 11 0.275391C11.5957 0.275391 11.9961 0.695312 11.9961 1.33008V9.92383C11.9961 10.5488 11.5957 10.9785 11 10.9785ZM11 21.0371C5.48242 21.0371 0.912109 16.4766 0.912109 10.9492C0.912109 8 2.2207 5.40234 4.05664 3.68359C5.05273 2.7168 6.46875 4.02539 5.43359 5.07031C3.88086 6.53516 2.91406 8.61523 2.9043 10.9492C2.9043 15.4414 6.50781 19.0547 11 19.0547C15.4922 19.0547 19.1055 15.4414 19.1055 10.9492C19.0957 8.625 18.1289 6.54492 16.5664 5.08008C15.541 4.04492 16.9473 2.72656 17.9434 3.69336C19.7793 5.41211 21.0879 8 21.0879 10.9492C21.0879 16.4766 16.5176 21.0371 11 21.0371Z" fill="#007AFF"/>
</svg>
